<svg id="Layer_1" data-name="Layer 1" xmlns="http://www.w3.org/2000/svg" viewBox="0 0 150 150"><defs><style>.cls-1,.cls-3{fill:#1495a6;}.cls-2{fill:#fff;}.cls-3{stroke:#fff;stroke-miterlimit:10;stroke-width:0.75px;}</style></defs><title>icon</title><rect class="cls-1" width="150" height="150" rx="4" ry="4"/><path class="cls-2" d="M961.72,384.44c.24-4.49,4.57-6.93,8.67-2.84l9.85,9.85a7.7,7.7,0,0,0,10.87,0l6.93-6.93,3-3c3.86-4,1.34-8.27-3.07-8.59-7.41-.47-11.5-8.35-5.51-14.81,6.54-6.07,14.42-1.81,14.81,5.51.32,4.41,4.57,6.93,8.59,3.07l2.68-2.68,7.17-7.17h0l.08-.08a7.46,7.46,0,0,0,0-10.56l-10-10c-4.1-4.1-1.58-8.35,2.84-8.67,7.41-.47,11.5-8.35,5.51-14.81-6.54-6.07-14.34-1.89-14.73,5.44-.24,4.49-4.65,7-8.74,2.91l-9.77-9.77a7.46,7.46,0,0,0-10.56,0l-9.85,9.85c-4.1,4.1-8.43,1.5-8.74-2.91-.47-7.41-8.35-11.5-14.81-5.51-6.07,6.54-1.81,14.42,5.51,14.81,4.49.24,7,4.65,2.91,8.74l-9.85,9.85a7.46,7.46,0,0,0,0,10.56l9.77,9.77c4.1,4.1,1.65,8.27-2.76,8.59-7.41.47-11.42,8.27-5.51,14.81C953.53,395.94,961.33,391.77,961.72,384.44Z" transform="translate(-909.5 -276.5)"/><path class="cls-3" d="M1007.24,348.84A24.22,24.22,0,1,1,983,373.06,24.17,24.17,0,0,1,1007.24,348.84Z" transform="translate(-909.5 -276.5)"/><path class="cls-2" d="M1017.46,363.88a3.05,3.05,0,0,0-1.75.9l-13,13-3.93-3.93a3,3,0,1,0-4.26,4.3l6.05,6.05a3.14,3.14,0,0,0,4.26,0L1020,369.08a3,3,0,0,0-2.51-5.2Z" transform="translate(-909.5 -276.5)"/></svg>